<?xml version="1.0" standalone="no"?>
<!DOCTYPE svg PUBLIC "-//W3C//DTD SVG 20010904//EN"
 "http://www.w3.org/TR/2001/REC-SVG-20010904/DTD/svg10.dtd">
<svg version="1.0" xmlns="http://www.w3.org/2000/svg"
 width="260.000000pt" height="260.000000pt" viewBox="0 0 260.000000 260.000000"
 preserveAspectRatio="xMidYMid meet">
<metadata>
Created by potrace 1.11, written by Peter Selinger 2001-2013
</metadata>
<g transform="translate(0.000000,260.000000) scale(0.100000,-0.100000)"
fill="#000000" stroke="none">
<path d="M1195 2508 c4 -10 -7 -13 -40 -12 -25 0 -45 -3 -45 -7 0 -4 -9 -5
-20 -2 -11 3 -20 0 -20 -6 0 -6 -12 -11 -26 -11 -15 0 -33 -8 -41 -17 -8 -10
-12 -12 -8 -5 8 15 -11 16 -20 1 -4 -6 -13 -8 -21 -5 -8 3 -14 0 -14 -7 0 -7
-12 -14 -27 -15 -15 -1 -32 -7 -38 -14 -7 -8 -6 -9 4 -3 9 5 12 4 8 -3 -4 -5
-18 -9 -32 -8 -13 2 -22 -1 -19 -5 3 -5 0 -9 -6 -9 -6 0 -8 -4 -5 -10 3 -6 -1
-7 -9 -4 -9 3 -27 -4 -42 -15 -15 -12 -23 -21 -18 -21 5 -1 -3 -8 -18 -16 -16
-8 -28 -19 -28 -24 0 -6 -7 -10 -15 -10 -8 0 -15 -6 -15 -14 0 -8 -4 -18 -10
-21 -6 -3 -7 1 -4 12 4 15 3 14 -7 -2 -7 -11 -18 -24 -26 -28 -7 -4 -13 -15
-13 -24 0 -9 -6 -13 -14 -10 -10 4 -13 1 -9 -9 3 -8 -1 -14 -11 -14 -9 0 -15
-3 -14 -7 0 -5 -4 -19 -10 -33 -6 -14 -11 -18 -12 -10 0 8 -9 -4 -20 -27 -10
-24 -24 -43 -31 -43 -6 0 -9 -6 -6 -14 3 -8 -1 -17 -10 -20 -8 -4 -13 -13 -10
-20 3 -8 -1 -20 -9 -27 -12 -10 -12 -14 -2 -20 10 -7 8 -9 -5 -9 -10 0 -15 -4
-12 -10 3 -5 0 -10 -7 -10 -9 0 -9 -3 2 -10 14 -9 7 -14 -13 -11 -4 1 -3 -8 3
-19 8 -15 8 -20 -1 -18 -7 2 -13 -8 -13 -22 0 -14 -6 -29 -13 -33 -11 -7 -11
-12 -2 -23 7 -9 8 -14 1 -14 -6 0 -10 -17 -9 -40 2 -22 -2 -40 -8 -40 -5 0 -3
-5 5 -10 9 -6 10 -10 3 -10 -8 0 -10 -16 -7 -51 3 -38 1 -49 -8 -43 -10 6 -10
5 -1 -7 6 -8 11 -36 11 -62 0 -26 6 -55 14 -64 9 -12 9 -15 1 -9 -7 4 -13 2
-13 -3 0 -6 6 -11 13 -11 7 0 8 -3 2 -8 -13 -9 -18 -35 -5 -27 10 6 14 -7 10
-34 -1 -8 3 -17 8 -20 6 -3 11 -22 13 -41 2 -19 7 -38 12 -41 4 -3 9 -16 10
-27 1 -12 5 -22 9 -22 4 0 8 -11 8 -25 0 -14 5 -25 11 -25 5 0 7 -4 4 -10 -3
-5 -2 -10 4 -10 5 0 8 -9 6 -20 -2 -13 0 -18 7 -14 6 4 9 1 6 -7 -2 -7 5 -22
16 -32 12 -10 14 -16 6 -12 -8 4 -6 -1 4 -9 11 -9 14 -16 8 -16 -8 0 -4 -9 8
-22 11 -12 20 -30 20 -39 0 -10 5 -21 12 -25 7 -5 8 -3 3 6 -5 8 -4 11 3 6 6
-3 9 -15 7 -26 -2 -12 0 -18 4 -15 9 5 20 -13 17 -28 0 -5 7 -13 17 -18 9 -6
17 -17 17 -25 0 -8 4 -13 9 -10 5 4 8 -2 7 -11 -3 -19 15 -43 27 -36 4 2 7 -3
7 -11 0 -8 6 -21 13 -28 7 -7 16 -21 20 -31 4 -11 12 -15 18 -11 7 4 9 3 6 -3
-4 -5 3 -19 13 -31 11 -12 20 -25 20 -31 0 -5 7 -12 16 -15 8 -3 12 -10 9 -16
-3 -5 2 -10 11 -10 10 0 14 -3 11 -6 -4 -4 3 -15 15 -25 11 -11 17 -19 12 -19
-5 0 -1 -5 9 -11 9 -6 15 -14 12 -20 -4 -5 2 -6 11 -2 11 4 15 2 11 -4 -4 -6
0 -13 8 -17 8 -3 15 -13 15 -21 0 -9 4 -13 10 -10 5 3 10 0 10 -8 0 -8 7 -17
15 -21 8 -3 15 -13 15 -23 0 -15 2 -15 9 -4 8 12 11 9 17 -12 3 -16 9 -25 12
-23 3 3 10 -4 16 -16 6 -13 23 -28 36 -35 14 -7 22 -13 17 -13 -4 0 11 -17 33
-39 22 -21 37 -41 33 -45 -3 -3 1 -6 10 -6 16 0 22 -12 18 -33 -1 -5 3 -6 8
-3 12 8 81 -51 81 -69 0 -7 11 -15 25 -17 15 -3 22 -1 18 5 -4 6 0 8 11 4 10
-4 15 -3 11 3 -3 5 6 17 21 26 14 10 30 28 35 42 6 16 14 22 25 18 8 -3 12 -2
9 4 -7 11 49 70 66 70 6 0 7 5 4 10 -3 6 1 13 9 16 9 3 14 10 11 14 -3 4 5 10
16 13 14 4 18 10 13 18 -5 9 -2 10 10 6 13 -5 17 -3 13 7 -3 8 4 18 19 25 13
6 23 14 22 18 -2 5 9 20 22 34 43 44 59 67 52 75 -4 4 1 4 12 0 14 -5 17 -2
12 9 -3 8 -2 14 2 12 4 -1 8 1 10 5 1 4 14 19 27 34 14 15 22 30 19 35 -3 5 2
6 10 3 11 -4 16 0 16 10 0 9 5 16 10 16 6 0 10 5 10 11 0 7 9 20 21 30 12 10
18 23 13 30 -5 8 -1 11 13 7 12 -3 20 0 20 8 0 7 -5 11 -11 8 -6 -3 0 4 14 15
14 11 21 21 17 21 -4 0 3 12 17 27 14 15 30 39 37 55 6 15 15 25 20 22 5 -3 9
-2 8 3 -3 13 14 47 27 56 7 4 11 14 8 22 -4 8 -1 15 5 15 6 0 11 5 11 12 0 6
8 20 18 31 12 15 13 18 2 12 -13 -8 -13 -6 -1 8 7 9 17 15 21 12 5 -3 12 0 16
6 4 8 3 9 -4 5 -13 -8 -16 6 -4 18 7 7 8 11 11 37 0 5 6 7 13 3 6 -4 8 -3 5 3
-3 5 1 22 9 38 8 16 12 35 9 42 -3 9 0 11 7 7 7 -5 9 0 6 14 -4 12 -1 20 4 19
6 -1 13 4 16 12 3 9 0 11 -9 7 -8 -4 -5 0 5 8 11 9 16 16 12 16 -5 0 -2 8 5
17 11 13 11 15 1 9 -11 -6 -11 -2 1 20 8 16 14 41 13 57 -1 15 2 27 7 27 4 0
5 5 2 10 -3 6 -1 10 6 10 8 0 7 5 -2 17 -12 14 -12 16 0 9 11 -7 13 0 9 33 -2
24 1 41 7 41 5 0 3 5 -5 10 -8 5 -10 10 -4 10 12 0 12 89 0 108 -4 7 -2 12 4
12 6 0 9 8 6 18 -3 10 -7 41 -8 69 -2 28 -6 49 -10 47 -8 -5 -10 2 -13 46 0
14 -6 35 -13 46 -6 12 -8 24 -5 28 3 3 1 6 -5 6 -14 0 -36 66 -26 81 4 8 3 9
-5 5 -12 -8 -32 33 -23 48 3 5 0 6 -6 2 -6 -3 -16 7 -24 24 -7 16 -16 30 -20
30 -4 0 -5 8 -1 18 3 9 3 14 -1 10 -8 -6 -46 26 -46 38 0 4 -8 13 -17 21 -10
8 -12 11 -4 7 9 -5 12 -3 7 4 -4 7 -14 12 -22 12 -8 0 -12 5 -9 10 3 6 -2 10
-11 10 -10 0 -15 3 -11 6 8 8 -16 33 -25 27 -5 -2 -8 3 -8 11 0 9 -4 16 -10
16 -5 0 -13 0 -17 1 -5 0 -14 11 -21 24 -7 14 -24 28 -37 31 -14 3 -25 11 -25
16 0 6 -7 8 -15 5 -8 -4 -17 -1 -21 5 -4 7 -3 8 4 4 7 -4 12 -5 12 -2 0 3 -10
10 -21 17 -17 9 -20 8 -14 -3 4 -7 -4 0 -17 16 -16 19 -27 25 -32 18 -5 -9
-12 -9 -26 0 -10 7 -17 15 -15 19 3 3 -8 6 -23 5 -16 0 -26 4 -24 12 1 7 -5
12 -14 12 -9 0 -13 -5 -9 -12 4 -7 1 -6 -7 2 -7 8 -24 15 -38 15 -14 -1 -31 5
-38 12 -16 16 -36 17 -26 2 4 -8 1 -8 -12 -2 -11 5 -32 10 -49 12 -44 2 -58 6
-74 15 -10 6 -12 5 -7 -2 10 -16 -7 -15 -23 1 -11 10 -13 10 -7 0 4 -7 2 -13
-3 -13 -6 0 -11 5 -11 11 0 6 -7 3 -16 -5 -21 -21 -30 -20 -13 1 13 14 12 15
-6 6 -23 -11 -35 -11 -52 0 -8 5 -11 3 -8 -5z m98 -113 c4 -6 11 -4 17 5 5 8
10 10 10 4 0 -6 17 -11 38 -11 84 -1 103 -3 98 -11 -3 -5 1 -9 9 -9 8 0 12 3
10 7 -2 4 2 7 10 7 8 0 12 -4 9 -9 -3 -4 2 -8 10 -8 26 0 30 -1 45 -13 12 -9
13 -9 7 0 -5 9 -2 11 8 7 9 -3 14 -10 11 -15 -3 -4 4 -6 15 -4 11 2 20 0 20
-6 0 -5 7 -9 16 -9 8 0 13 -4 9 -9 -3 -6 4 -8 15 -6 11 2 20 -1 20 -7 0 -5 7
-7 16 -4 8 3 12 2 9 -4 -3 -6 -1 -10 5 -10 6 0 18 -7 27 -15 8 -8 18 -13 23
-10 4 3 14 -3 21 -12 12 -14 12 -16 0 -8 -9 5 -12 4 -7 -3 4 -6 12 -9 20 -6 7
3 21 -7 32 -21 10 -14 24 -25 31 -25 12 0 17 -13 14 -32 0 -4 6 -5 14 -2 9 4
15 0 15 -10 0 -9 5 -16 11 -16 5 0 7 -5 3 -12 -4 -6 -3 -8 3 -5 6 4 19 -3 29
-14 17 -19 17 -20 -2 -14 -10 4 -7 -1 9 -10 15 -8 27 -22 27 -30 0 -8 5 -15
11 -15 6 0 9 -7 6 -15 -4 -8 -2 -17 3 -20 5 -3 19 -20 32 -37 12 -17 16 -28 8
-23 -15 9 -7 -9 18 -37 7 -9 11 -21 8 -26 -3 -6 1 -12 9 -16 8 -3 15 -11 15
-18 0 -9 -3 -8 -10 2 -6 9 -10 10 -10 3 0 -6 4 -14 10 -18 5 -3 7 -12 3 -20
-3 -8 0 -15 7 -15 7 0 10 -7 6 -16 -3 -8 -2 -13 3 -10 5 3 11 -1 15 -9 3 -8 1
-17 -5 -20 -5 -4 -6 -12 -2 -18 11 -18 12 -220 1 -234 -5 -7 -5 -14 2 -18 8
-5 8 -11 0 -19 -5 -7 -11 -25 -12 -40 -1 -14 -5 -26 -9 -26 -3 0 -6 -8 -6 -17
0 -44 -3 -54 -15 -47 -10 5 -10 4 -2 -5 9 -9 6 -23 -9 -54 -20 -41 -22 -47
-25 -75 -1 -7 -7 -10 -14 -6 -6 4 -8 3 -5 -3 7 -12 -14 -63 -26 -63 -5 0 -6
-4 -3 -9 9 -14 -5 -42 -16 -34 -7 4 -9 -4 -6 -20 3 -14 2 -26 -1 -25 -18 2
-33 -3 -28 -9 4 -3 1 -13 -6 -21 -10 -13 -9 -15 3 -8 8 4 6 0 -4 -8 -11 -9
-17 -16 -13 -16 5 0 2 -6 -5 -14 -7 -8 -16 -12 -20 -9 -4 2 -5 -3 -2 -11 3 -9
1 -16 -6 -16 -6 0 -8 -4 -5 -10 3 -5 2 -10 -4 -10 -6 0 -13 -11 -17 -25 -3
-14 -10 -25 -16 -25 -5 0 -6 6 -2 13 6 9 3 8 -8 -1 -9 -8 -15 -19 -12 -27 3
-7 0 -16 -5 -20 -6 -3 -9 -11 -6 -16 4 -5 -1 -9 -9 -9 -9 0 -16 -6 -16 -13 0
-8 -10 -19 -22 -26 -16 -8 -17 -10 -4 -6 16 5 17 3 6 -10 -7 -8 -17 -12 -23
-8 -5 3 -7 1 -4 -5 4 -5 -6 -23 -22 -38 -17 -15 -28 -31 -25 -36 3 -4 -2 -8
-10 -8 -9 0 -15 -3 -15 -7 4 -22 -2 -33 -13 -27 -7 5 -9 2 -5 -9 4 -11 1 -15
-13 -12 -13 3 -17 -1 -13 -11 3 -8 0 -14 -6 -14 -6 0 -11 -7 -11 -16 0 -8 -3
-13 -7 -11 -8 4 -41 -26 -45 -40 -2 -5 -6 -7 -11 -5 -4 1 -6 -1 -6 -5 3 -21
-2 -33 -13 -31 -7 2 -12 -2 -11 -8 1 -7 -7 -20 -17 -29 -11 -10 -20 -14 -20
-9 0 5 -6 -2 -13 -16 -7 -14 -20 -24 -29 -24 -11 1 -15 -5 -13 -17 4 -17 -6
-24 -28 -20 -5 1 -6 -2 -3 -7 6 -11 -30 -43 -39 -34 -4 4 -5 0 -3 -8 2 -8 -2
-14 -9 -13 -8 2 -10 -4 -6 -15 5 -13 3 -14 -7 -5 -7 6 -19 9 -28 6 -9 -4 -13
-2 -9 4 4 6 0 14 -9 17 -9 4 -14 9 -10 13 3 3 -4 11 -17 18 -12 6 -21 17 -19
24 1 7 -2 10 -7 7 -5 -3 -14 1 -21 9 -7 8 -9 15 -4 15 4 0 -11 17 -33 39 -23
21 -39 42 -35 45 3 4 -2 4 -11 0 -10 -3 -17 -2 -15 3 2 5 -9 22 -24 39 -15 16
-41 44 -57 63 -17 18 -28 38 -24 45 4 6 -1 5 -10 -3 -15 -12 -17 -12 -12 2 4
10 -1 18 -16 22 -15 5 -18 10 -9 15 8 5 7 9 -5 14 -9 3 -13 11 -10 16 4 6 1 9
-7 8 -7 -2 -12 2 -11 9 2 8 -4 10 -14 6 -11 -4 -14 -3 -9 5 4 7 -5 23 -21 38
-15 14 -22 23 -15 19 6 -3 12 -1 12 4 0 6 -5 11 -11 11 -6 0 -17 6 -25 14 -11
11 -11 16 -1 19 7 3 4 6 -6 6 -10 1 -15 6 -12 11 3 6 -1 10 -10 10 -12 0 -15
6 -10 20 4 13 2 20 -5 18 -7 -2 -17 6 -23 17 -7 10 -17 25 -24 32 -6 7 -15 22
-18 33 -4 11 -11 17 -17 14 -6 -4 -5 3 2 16 7 12 8 20 2 16 -12 -7 -35 18 -25
27 3 4 1 7 -6 7 -7 0 -9 4 -6 10 3 6 -2 10 -12 11 -13 0 -14 2 -4 6 10 4 8 9
-10 20 -13 8 -16 12 -7 9 13 -4 10 5 -12 37 -20 29 -25 44 -17 49 12 8 1 12
-18 8 -5 -1 -7 2 -3 6 4 4 3 13 -3 21 -6 7 -8 13 -4 13 4 0 0 12 -10 26 -11
18 -13 24 -4 19 9 -5 8 -1 -2 11 -9 10 -15 29 -14 42 1 15 -3 21 -12 18 -7 -3
-13 -1 -13 4 0 6 5 10 11 10 8 0 8 5 -1 15 -7 8 -9 15 -5 15 4 0 2 7 -5 15 -6
8 -9 19 -5 25 3 5 1 10 -4 10 -6 0 -11 4 -11 10 0 5 8 7 18 4 13 -4 12 -2 -3
8 -19 12 -20 22 -18 153 3 181 5 205 18 195 7 -6 10 5 8 30 -1 22 3 43 9 46 7
5 8 2 3 -6 -5 -8 -4 -11 2 -7 6 4 9 18 7 32 -1 16 3 28 12 32 9 3 13 12 10 19
-3 8 0 14 6 14 6 0 8 3 5 7 -4 3 1 12 11 20 16 12 15 13 -3 6 -13 -5 -8 4 15
26 19 19 26 27 16 20 -17 -12 -16 -9 4 18 13 18 27 30 31 27 5 -3 6 2 3 10 -4
11 0 16 11 16 9 0 14 4 10 9 -3 5 4 16 15 24 11 7 17 17 13 20 -6 6 10 11 28
9 4 -1 6 6 5 16 0 9 4 16 11 15 7 -2 17 6 23 18 6 11 22 24 36 29 16 6 22 14
18 22 -5 7 -2 9 9 5 9 -3 18 0 21 9 3 9 10 12 16 9 6 -3 13 1 16 10 5 11 10
13 19 5 10 -8 13 -6 11 7 -1 12 5 17 17 15 9 -2 17 2 17 7 0 6 16 13 35 17 20
4 32 10 28 17 -3 6 -1 7 5 3 7 -4 18 -4 25 1 6 4 22 8 33 8 12 0 28 6 36 13 8
6 29 10 46 8 18 -2 32 0 32 4 0 4 18 6 40 4 23 -1 38 2 34 7 -7 13 19 7 29 -6z"/>
<path d="M1240 2085 c-1 -5 -2 -13 -1 -17 0 -5 -4 -8 -10 -8 -5 0 -7 -5 -4
-10 4 -6 1 -17 -5 -25 -6 -8 -8 -20 -4 -26 5 -9 2 -10 -9 -6 -10 4 -14 2 -12
-6 8 -19 -11 -72 -24 -69 -8 1 -9 -3 -3 -15 7 -13 3 -31 -13 -61 -12 -23 -24
-40 -28 -37 -4 3 -3 0 2 -6 6 -8 4 -17 -6 -27 -11 -11 -12 -17 -4 -20 8 -3 6
-9 -6 -19 -10 -8 -12 -12 -5 -8 6 3 12 1 12 -4 0 -6 -4 -11 -10 -11 -5 0 -13
-12 -16 -27 -4 -16 -11 -31 -16 -34 -5 -3 -10 -19 -12 -35 -2 -16 -4 -33 -5
-37 0 -5 -5 -6 -10 -2 -6 3 -8 -4 -6 -15 2 -11 0 -20 -5 -20 -5 0 -7 -9 -5
-20 2 -11 -1 -23 -7 -26 -7 -5 -8 -2 -3 6 5 8 4 11 -2 7 -6 -4 -10 -19 -9 -34
1 -16 -7 -36 -19 -46 -11 -10 -14 -16 -7 -12 6 3 12 1 12 -4 0 -6 -5 -11 -11
-11 -5 0 -8 -4 -5 -9 4 -5 0 -12 -6 -14 -10 -4 -10 -6 0 -6 10 -1 10 -5 -2
-17 -9 -8 -14 -20 -11 -25 4 -5 1 -9 -5 -9 -6 0 -9 -4 -5 -9 3 -5 -2 -17 -11
-25 -11 -12 -12 -16 -2 -16 10 0 9 -3 -2 -10 -8 -5 -11 -10 -7 -10 5 0 2 -7
-7 -15 -8 -9 -13 -22 -10 -30 4 -8 2 -15 -3 -15 -5 0 -10 -11 -11 -24 -1 -18
3 -23 21 -21 12 0 30 -3 41 -8 13 -6 16 -6 11 2 -4 8 2 10 19 7 14 -3 26 0 26
5 0 6 5 7 11 3 8 -4 9 0 4 15 -4 13 -2 21 5 21 6 0 10 6 7 13 -2 6 1 21 6 32
11 20 16 36 19 67 1 9 6 14 12 11 5 -4 7 1 3 10 -3 10 -2 17 2 17 5 0 8 13 7
29 -1 20 3 28 14 27 8 -1 14 4 13 10 -2 11 57 12 75 0 7 -4 12 -2 12 4 0 7 5
8 17 1 12 -6 21 -5 31 7 7 10 11 12 8 5 -8 -16 7 -24 24 -13 9 5 19 5 27 -2 9
-7 13 -7 13 0 0 7 10 8 28 3 15 -5 37 -4 50 0 16 6 21 5 16 -2 -4 -7 1 -9 15
-4 11 3 26 3 33 -2 7 -4 17 -8 22 -8 5 0 11 -11 13 -24 3 -21 1 -22 -14 -10
-10 7 -7 1 6 -14 14 -15 21 -30 18 -34 -4 -3 3 -18 15 -31 13 -14 18 -22 11
-18 -8 4 -11 -1 -10 -14 1 -12 7 -18 13 -16 8 3 11 -3 9 -16 -3 -12 3 -27 13
-35 10 -9 11 -11 2 -7 -12 7 -13 5 -3 -8 7 -8 10 -17 7 -21 -3 -3 11 -4 33 -3
21 2 48 -1 61 -6 13 -4 21 -4 18 1 -3 5 1 12 10 15 15 6 15 8 2 24 -9 9 -13
22 -11 29 2 6 -1 15 -8 19 -8 5 -9 3 -4 -6 5 -8 4 -11 -3 -6 -6 4 -9 13 -5 21
3 9 -1 15 -8 15 -10 0 -10 3 -1 12 9 9 7 15 -6 25 -11 9 -11 12 -2 7 10 -5 8
1 -5 16 -12 14 -14 20 -5 15 12 -7 12 -5 -1 11 -25 30 -34 48 -20 39 15 -9 -8
35 -24 47 -6 5 -4 8 5 8 11 0 12 2 3 8 -7 4 -14 19 -15 32 -4 30 -19 50 -33
42 -5 -3 -4 2 4 11 7 9 9 17 3 17 -5 0 -13 7 -16 16 -3 8 -2 12 4 9 6 -3 7 1
4 9 -3 9 -10 16 -16 16 -5 0 -6 10 -3 21 5 15 4 19 -5 14 -7 -4 -10 -1 -8 11
2 12 -2 18 -10 16 -8 -1 -11 2 -7 8 4 6 1 18 -7 27 -9 12 -9 15 0 9 6 -4 12
-3 12 3 0 5 -5 11 -10 13 -6 2 -12 14 -12 28 -1 14 -10 36 -20 49 -20 26 -24
46 -7 36 6 -4 5 2 -3 14 -7 12 -17 21 -22 21 -4 0 -6 9 -3 20 3 11 2 18 -3 15
-4 -3 -11 2 -14 11 -3 8 -2 12 4 9 6 -3 10 -1 10 4 0 6 -5 11 -11 11 -5 0 -7
5 -4 10 3 6 1 10 -6 10 -7 0 -9 3 -6 7 4 3 0 14 -9 24 -9 10 -14 25 -11 34 4
8 1 15 -5 15 -6 0 -9 3 -5 6 3 3 -4 16 -14 28 -19 22 -56 26 -96 12 -6 -3 -14
0 -17 7 -2 7 -5 8 -6 2z m77 -197 c2 -12 8 -27 13 -33 6 -7 5 -16 -2 -23 -9
-9 -7 -11 9 -8 17 4 19 0 15 -21 -3 -14 0 -28 7 -32 6 -4 13 -24 14 -44 2 -20
7 -40 12 -44 4 -5 5 -2 0 6 -5 9 -4 12 3 7 6 -3 9 -15 7 -26 -2 -11 -1 -20 3
-20 4 0 8 -10 9 -22 1 -11 6 -24 11 -27 5 -3 9 -20 8 -37 -1 -21 3 -30 12 -27
6 3 12 0 12 -6 0 -13 1 -13 -67 -17 -36 -2 -53 1 -53 9 0 8 -4 7 -9 -2 -5 -8
-16 -11 -25 -8 -9 4 -16 1 -16 -6 0 -7 -3 -8 -8 -2 -8 12 -35 13 -42 3 -3 -4
-18 -1 -34 7 -25 14 -28 13 -22 -1 5 -14 4 -15 -9 -4 -12 10 -13 16 -4 26 6 8
8 14 4 14 -4 0 0 12 10 26 9 15 12 23 6 20 -7 -5 -9 -1 -5 8 3 9 11 13 17 9 6
-3 7 -1 3 6 -9 14 2 53 13 46 5 -2 7 9 6 25 -2 18 1 27 8 23 6 -4 8 2 5 15 -4
12 -1 25 4 29 7 4 8 1 3 -8 -7 -12 -5 -12 6 -1 12 11 12 14 -1 22 -12 8 -12
10 -1 10 8 0 11 7 8 20 -3 11 0 18 7 17 6 -1 10 4 9 11 -2 6 1 12 7 12 5 0 7
6 4 13 -2 7 0 24 5 38 5 13 10 18 10 11 1 -7 6 -10 11 -7 6 4 7 12 4 18 -4 7
-3 9 1 4 5 -4 10 -17 12 -29z"/>
<path d="M1470 419 c0 -5 5 -7 10 -4 6 3 10 8 10 11 0 2 -4 4 -10 4 -5 0 -10
-5 -10 -11z"/>
<path d="M1220 142 c0 -4 10 -13 23 -21 22 -14 22 -14 3 8 -20 22 -26 25 -26
13z"/>
</g>
</svg>
